<svg xmlns="http://www.w3.org/2000/svg" width="80" height="80" viewBox="0 0 80 80">
  <path fill="#FAFAFA" d="M50.6786128,5.2275178e-05 C64.6735436,5.2275178e-05 76,10.7399503 76,23.969706 C76,27.7847077 73.8945379,32.2163709 70.8975047,36.5917266 L70.4295522,37.2643232 C70.1131128,37.7123038 69.7879495,38.1593291 69.4553719,38.6046729 L68.9511085,39.2713368 C68.7812762,39.4930772 68.6097542,39.7143065 68.4367059,39.9349339 L67.9131465,40.5949198 C67.7372097,40.8142528 67.5599104,41.032893 67.3814125,41.2507499 L66.8424861,41.9018797 L66.2973496,42.5477645 C66.2060305,42.6549446 66.1144937,42.7618835 66.0227595,42.8685698 L65.4701496,43.5055662 L64.9137853,44.1359563 L64.3546488,44.7591954 L63.7937223,45.3747392 L63.2319882,45.9820429 L62.6704288,46.5805622 L62.1100262,47.1697523 L61.2737401,48.0348542 L60.720527,48.5983392 L59.8996296,49.4223307 L59.3597452,49.9567071 L58.8269113,50.4784869 L58.0430287,51.2363472 L57.2805347,51.9628024 L56.5427446,52.6560147 L55.6031826,53.5254098 L54.9359269,54.1339078 L38.1500737,70.0000523 L24.9025248,57.4732837 L24.1103129,56.8034311 L23.1871957,56.0067909 L22.2980507,55.225299 L21.5533246,54.5606209 L20.7490068,53.8325673 L20.182867,53.3137503 L19.2935334,52.4879934 L18.6766762,51.9073416 L18.0428696,51.3038046 L17.3940207,50.6784385 L16.7320366,50.0322997 C16.6207173,49.9229376 16.5089301,49.8127539 16.3967149,49.7017707 L15.7186039,49.0264533 L15.0321257,48.333004 L14.3391873,47.6224791 L13.6416959,46.8959347 L12.9415586,46.1544273 L12.5910938,45.7783925 L12.5910938,45.7783925 L11.8905636,45.016421 C11.5406701,44.6322667 11.1915723,44.2434914 10.8443431,43.8506895 L10.1526938,43.0598928 L9.46793435,42.2594145 C4.3628435,36.2221621 0,29.4571523 0,23.969706 C0,10.7399503 11.3391492,5.2275178e-05 25.3370665,5.2275178e-05 C29.7645688,-0.00787857711 34.1228877,1.09915454 38.0104529,3.21925734 C41.8958154,1.09834882 46.2526606,-0.00876653987 50.6786128,5.2275178e-05 Z M25.3333333,3.72345653 C13.3961541,3.72345653 3.7254902,12.8385095 3.7254902,24.0832061 C3.7254902,28.6935317 7.35776863,34.3628526 11.6438572,39.4477969 L12.2754112,40.1875727 C12.4872545,40.4326469 12.7003078,40.6761398 12.9142255,40.9178607 L13.5582256,41.6375164 L14.2053373,42.3453952 L14.8534862,43.0403527 L15.5005979,43.7212442 C15.6082482,43.8334904 15.7157688,43.9451028 15.8231165,44.0560576 L16.4647831,44.7137044 L17.1002265,45.3544239 L17.7273725,45.9770716 L18.3441468,46.5805032 L18.948475,47.1635739 L19.8270931,47.9974998 L20.3912307,48.5246613 L21.1998394,49.2693584 L21.9571078,49.9553678 L22.6560351,50.5788267 L23.4850849,51.3061281 L24.181376,51.9062054 L24.9405892,52.5477468 L25.3333333,52.8723927 L26.060178,52.2672645 L26.8158042,51.6226421 L27.580549,50.9578082 L28.2366928,50.3781955 L28.955845,49.7334573 L29.7310048,49.0274561 L30.275436,48.5246613 L30.8395736,47.9974998 L31.4213431,47.4471163 L32.0186704,46.8746552 L32.9392941,45.9770716 L33.5664402,45.3544239 L34.2018836,44.7137044 L34.8435501,44.0560576 L35.4893653,43.3826282 L36.1372549,42.6945606 C36.2452941,42.5787264 36.3533333,42.46233 36.4613293,42.3453952 L37.108441,41.6375164 L37.7524412,40.9178607 C37.9663588,40.6761398 38.1794122,40.4326469 38.3912555,40.1875727 L39.0228095,39.4477969 C43.308898,34.3628526 46.9411765,28.6935317 46.9411765,24.0832061 C46.9411765,12.8385095 37.2399846,3.72345653 25.3333333,3.72345653 Z" transform="translate(2 5)"/>
</svg>
